<?xml version="1.0" standalone="no"?>
<!DOCTYPE svg PUBLIC "-//W3C//DTD SVG 20010904//EN"
 "http://www.w3.org/TR/2001/REC-SVG-20010904/DTD/svg10.dtd">
<svg version="1.0" xmlns="http://www.w3.org/2000/svg"
 width="400.000000pt" height="400.000000pt" viewBox="0 0 400.000000 400.000000"
 preserveAspectRatio="xMidYMid meet">
<metadata>
Created by potrace 1.10, written by Peter Selinger 2001-2011
</metadata>
<g transform="translate(0.000000,400.000000) scale(0.050000,-0.050000)"
fill="#a9a9a9" stroke="none">
<path d="M0 4000 l0 -4000 570 0 c388 0 570 7 570 21 0 12 -9 16 -19 10 -66
-41 -371 213 -435 363 -34 81 -54 446 -24 446 9 0 12 13 5 30 -6 16 -1 30 12
30 13 0 18 9 11 20 -7 11 -2 20 10 20 12 0 17 9 10 20 -7 11 -2 20 10 20 12 0
17 9 10 20 -14 22 166 213 194 205 9 -3 22 8 29 25 6 16 19 25 29 19 10 -6 18
-1 18 11 0 12 9 17 20 10 11 -7 20 -2 20 10 0 12 9 17 20 10 11 -7 20 -3 20 8
0 29 9 30 865 23 764 -5 853 1 772 51 -15 9 -18 5 -9 -14 8 -15 -23 13 -69 62
-46 50 -77 77 -70 60 8 -16 -20 6 -61 50 -41 44 -68 67 -60 50 8 -16 -23 11
-69 60 -46 50 -77 77 -70 60 8 -16 -24 11 -70 60 -46 50 -72 72 -57 50 14 -22
-11 -5 -57 38 -46 43 -79 85 -74 93 5 8 -14 30 -42 48 -28 18 -46 40 -40 50 6
9 -3 22 -20 29 -18 6 -26 21 -19 32 7 11 2 20 -10 20 -12 0 -17 9 -10 20 7 11
2 20 -10 20 -12 0 -17 9 -10 20 7 11 2 20 -10 20 -12 0 -17 9 -10 20 7 11 2
20 -11 20 -13 0 -18 14 -12 30 7 17 2 30 -9 30 -11 0 -15 8 -9 19 6 10 3 24
-8 30 -10 7 -14 25 -8 42 6 16 2 29 -9 29 -11 0 -20 20 -20 45 -1 25 -3 135
-6 246 -3 110 1 211 8 223 8 12 9 37 2 54 -7 19 -2 32 12 32 13 0 19 13 13 29
-6 17 -2 35 8 42 11 6 14 20 8 30 -6 11 -1 19 12 19 13 0 18 14 12 30 -7 17
-2 30 9 30 11 0 15 9 8 20 -7 11 -2 20 10 20 12 0 17 9 10 20 -7 11 -2 20 10
20 12 0 17 8 11 18 -6 10 3 23 20 30 18 6 26 21 19 32 -7 11 -2 20 10 20 12 0
17 8 11 18 -6 10 3 23 20 30 18 6 27 20 20 30 -6 10 3 23 20 30 18 6 26 21 19
32 -7 11 -2 20 10 20 12 0 17 8 11 18 -6 10 4 23 22 30 18 7 28 18 22 24 -7 6
6 29 27 50 22 22 35 47 29 57 -6 9 4 22 22 29 18 7 28 18 22 24 -7 6 6 29 27
50 22 22 35 47 29 57 -6 9 4 22 22 29 18 7 28 18 22 24 -7 6 1 26 17 45 15 18
28 40 28 48 0 8 18 33 41 56 22 22 36 48 30 58 -6 9 4 22 22 29 18 7 28 18 22
24 -7 6 6 29 27 50 22 22 35 47 29 57 -6 9 4 22 22 29 18 7 28 18 22 24 -7 6
6 29 27 50 22 22 34 48 28 59 -7 10 -4 19 7 19 23 0 90 100 90 134 0 14 7 26
16 26 18 0 87 123 81 145 -2 8 5 15 15 15 18 0 82 104 81 130 0 5 18 28 41 51
22 22 36 48 30 58 -6 9 4 22 22 29 18 7 28 18 22 24 -7 6 6 29 27 50 22 22 35
47 29 57 -6 9 4 22 22 29 18 7 28 18 22 24 -7 6 6 29 27 50 22 22 35 47 29 57
-6 9 4 22 22 29 18 7 28 18 22 24 -7 6 6 29 27 50 22 22 35 47 29 57 -6 9 4
22 22 29 18 7 27 18 21 25 -6 6 6 30 27 52 20 23 33 48 28 56 -5 8 5 20 22 27
18 6 26 21 19 32 -7 11 -2 20 10 20 12 0 17 8 11 18 -6 10 3 23 20 30 18 6 27
20 20 30 -6 10 3 23 20 30 18 6 26 21 19 32 -7 11 -2 20 10 20 12 0 17 8 11
18 -6 10 3 23 19 29 17 7 28 19 26 27 -6 21 160 183 173 170 6 -5 16 5 23 23
7 18 20 28 30 22 10 -6 18 -4 18 6 0 9 19 18 43 20 24 2 50 14 58 27 8 13 25
17 37 9 12 -7 33 -7 45 1 35 21 237 24 250 3 6 -10 23 -13 38 -7 15 6 33 1 40
-9 6 -11 20 -14 30 -8 11 6 19 1 19 -11 0 -12 9 -17 20 -10 11 7 20 2 20 -10
0 -12 9 -17 20 -10 11 7 20 2 20 -10 0 -12 8 -17 18 -11 10 6 23 -3 30 -20 6
-18 21 -26 32 -19 11 7 20 2 20 -10 0 -12 9 -17 19 -11 10 7 29 -6 41 -28 11
-22 28 -38 37 -36 9 3 41 -22 71 -55 30 -33 49 -46 42 -30 -7 17 16 -1 51 -40
36 -38 93 -95 127 -126 34 -31 49 -51 32 -44 -16 7 -5 -10 26 -38 31 -29 49
-52 40 -53 -9 0 4 -17 28 -37 24 -20 39 -42 32 -49 -6 -7 3 -18 21 -25 18 -7
29 -19 24 -27 -5 -8 8 -33 28 -56 21 -22 33 -46 26 -53 -6 -7 -1 -12 13 -12
13 0 19 -9 12 -20 -7 -11 -2 -20 10 -20 12 0 17 -9 10 -20 -7 -11 -2 -20 10
-20 12 0 17 -9 10 -20 -7 -11 -2 -20 10 -20 12 0 17 -9 10 -20 -7 -11 -1 -20
12 -20 14 0 19 -6 12 -12 -17 -17 341 -728 367 -728 11 0 25 13 32 30 6 16 19
25 29 19 10 -7 24 2 30 20 7 17 20 26 29 21 9 -6 29 7 44 30 16 22 34 34 41
27 7 -7 19 2 26 20 7 18 20 28 29 22 9 -5 27 8 39 31 12 23 31 36 41 29 11 -6
25 2 31 20 7 17 20 26 29 20 9 -5 27 8 39 31 12 23 31 36 41 29 11 -6 25 2 31
20 7 17 20 26 29 20 9 -5 27 8 39 31 12 23 30 36 39 31 9 -6 22 3 29 20 6 18
20 26 31 20 10 -7 29 6 41 29 12 23 30 36 39 31 9 -6 22 3 29 20 6 18 21 26
32 19 11 -7 20 -3 20 7 0 17 46 41 105 55 8 1 17 5 20 8 8 8 123 24 165 22
128 -3 150 -7 150 -25 0 -10 9 -14 20 -7 27 17 100 -24 160 -88 28 -29 46 -44
40 -32 -5 12 10 -1 35 -29 110 -124 151 -371 92 -547 -27 -78 -277 -343 -307
-324 -9 5 -21 -4 -28 -21 -6 -18 -20 -26 -31 -20 -10 7 -29 -6 -41 -29 -12
-23 -30 -36 -39 -31 -9 6 -22 -3 -29 -20 -6 -18 -20 -26 -31 -20 -10 7 -29 -6
-41 -29 -12 -23 -30 -36 -39 -31 -9 6 -22 -3 -29 -20 -6 -18 -20 -26 -31 -20
-10 7 -29 -6 -41 -29 -12 -23 -30 -36 -39 -31 -9 6 -22 -3 -29 -20 -6 -18 -20
-26 -31 -20 -10 7 -29 -6 -41 -29 -12 -23 -31 -36 -41 -29 -11 6 -25 -2 -31
-20 -7 -17 -20 -26 -29 -20 -9 5 -27 -8 -39 -31 -12 -23 -31 -36 -41 -29 -11
6 -25 -2 -31 -20 -7 -17 -20 -26 -29 -20 -9 5 -27 -8 -39 -31 -12 -23 -31 -36
-41 -29 -11 6 -25 -2 -31 -20 -7 -17 -20 -26 -29 -20 -9 5 -27 -8 -39 -31 -12
-23 -31 -36 -41 -29 -11 6 -25 -2 -31 -20 -7 -17 -20 -26 -29 -20 -9 5 -27 -8
-39 -31 -12 -23 -31 -36 -41 -29 -11 6 -25 -2 -31 -20 -7 -17 -20 -26 -30 -20
-10 7 -24 -2 -30 -20 -7 -17 -20 -26 -30 -20 -10 7 -24 -2 -30 -20 -7 -17 -18
-27 -25 -23 -7 4 -35 -2 -63 -13 -61 -25 -320 -32 -320 -8 0 9 -11 13 -25 8
-13 -4 -36 2 -49 13 -14 12 -69 53 -124 91 -54 39 -94 77 -89 86 5 8 -4 21
-22 27 -17 7 -26 20 -20 30 6 10 1 18 -11 18 -12 0 -17 9 -10 20 7 11 2 20
-10 20 -12 0 -17 9 -10 20 7 11 4 20 -5 20 -10 0 -18 12 -18 27 0 33 -249 553
-265 553 -17 0 -608 -1104 -609 -1135 0 -14 -6 -25 -14 -25 -19 0 -145 -240
-125 -240 9 0 6 -7 -6 -15 -35 -24 -129 -197 -115 -212 8 -7 3 -13 -11 -13
-13 0 -19 -9 -12 -20 7 -11 2 -20 -10 -20 -12 0 -17 -9 -10 -20 7 -11 5 -20
-5 -20 -57 0 -89 -123 -44 -171 24 -26 50 -45 57 -43 8 2 43 -27 79 -66 37
-38 60 -56 52 -40 -8 17 18 -6 59 -50 41 -44 69 -66 62 -50 -7 17 14 -1 47
-40 33 -38 69 -70 81 -70 11 0 49 -31 83 -70 34 -38 56 -56 48 -40 -7 17 20
-6 60 -50 41 -44 68 -66 61 -50 -7 17 24 -10 70 -60 46 -49 77 -76 70 -60 -7
17 20 -6 61 -50 40 -44 67 -66 60 -50 -8 17 24 -10 70 -60 46 -49 77 -76 70
-60 -8 17 19 -6 60 -50 40 -44 66 -66 59 -50 -8 17 27 -12 79 -64 51 -51 93
-99 92 -105 0 -6 17 -29 40 -52 22 -22 36 -48 30 -58 -6 -10 -2 -21 10 -25 11
-3 23 -31 27 -61 3 -30 11 -61 19 -68 30 -30 12 -269 -29 -376 -42 -113 -228
-340 -261 -319 -9 6 -17 0 -17 -12 0 -12 -8 -17 -18 -11 -10 6 -23 -4 -30 -21
-7 -18 -25 -27 -42 -21 -17 7 -30 2 -30 -10 0 -12 -13 -16 -30 -10 -16 7 -30
3 -30 -8 0 -12 592 -19 1630 -19 l1630 0 0 4000 0 4000 -985 -1 c-972 -1 -984
-2 -875 -37 233 -75 575 -349 529 -424 -6 -10 -2 -18 11 -18 78 0 181 -576
117 -654 -11 -13 -14 -34 -7 -46 7 -12 3 -35 -11 -51 -13 -16 -17 -29 -9 -29
8 0 5 -12 -7 -27 -13 -15 -17 -33 -9 -40 7 -7 2 -13 -12 -13 -13 0 -19 -9 -12
-20 7 -11 2 -20 -10 -20 -12 0 -17 -9 -10 -20 7 -11 2 -20 -10 -20 -12 0 -17
-9 -10 -20 7 -11 3 -20 -9 -20 -11 0 -19 -8 -16 -19 3 -10 -13 -33 -35 -51
-22 -18 -26 -27 -10 -20 17 7 2 -13 -32 -44 -35 -31 -87 -83 -117 -116 -30
-33 -48 -46 -41 -30 7 17 -2 12 -20 -10 -18 -22 -41 -38 -51 -35 -11 3 -19 -5
-19 -16 0 -12 -9 -16 -20 -9 -11 7 -20 2 -20 -10 0 -12 -9 -17 -20 -10 -11 7
-20 2 -20 -10 0 -12 -9 -17 -20 -10 -11 7 -20 2 -20 -10 0 -12 -8 -17 -19 -11
-10 6 -24 3 -30 -8 -7 -10 -25 -14 -42 -8 -16 6 -29 0 -29 -13 0 -14 -13 -19
-32 -12 -17 7 -41 6 -53 -1 -28 -18 -296 -15 -341 3 -20 8 -41 9 -48 3 -7 -7
-23 -4 -36 7 -13 10 -40 22 -62 26 -21 3 -67 22 -103 41 -35 18 -69 31 -74 28
-5 -3 -23 13 -40 35 -16 22 -30 33 -30 23 -1 -9 -24 12 -53 46 -28 33 -61 55
-73 48 -12 -7 -15 -4 -8 8 7 12 -9 39 -36 61 -27 21 -44 44 -37 51 6 7 -3 18
-21 25 -18 7 -28 20 -22 30 7 10 -2 24 -20 30 -17 7 -26 20 -20 30 6 10 1 18
-11 18 -12 0 -17 9 -10 20 7 11 3 20 -8 20 -11 0 -16 14 -9 30 6 17 2 30 -10
30 -12 0 -17 14 -10 30 6 17 1 30 -12 30 -14 0 -19 15 -12 38 7 21 6 43 -3 48
-20 13 -18 358 2 390 8 13 9 32 3 43 -6 10 -2 24 9 31 11 7 16 21 10 30 -6 9
-1 23 10 30 11 7 15 21 9 31 -6 11 -1 19 11 19 12 0 17 9 10 20 -7 11 -2 20
10 20 12 0 17 9 10 20 -7 11 -2 20 10 20 12 0 17 8 11 19 -7 10 4 28 24 39 19
12 26 21 15 21 -11 1 7 24 40 53 33 28 47 44 30 36 -16 -8 1 19 39 59 69 74
101 95 68 47 -9 -14 3 -3 28 25 25 28 45 44 45 36 0 -8 18 3 41 26 22 22 49
35 60 29 10 -7 19 -3 19 8 0 11 56 38 125 60 l125 40 -2835 1 -2835 1 0 -4000z"/>
</g>
</svg>
